<svg viewBox="0 0 1062 15" fill="none" xmlns="http://www.w3.org/2000/svg">
<path opacity="0.8" fill-rule="evenodd" clip-rule="evenodd" d="M1047.16 13.5542C1046.1 13.0926 1040.28 10.8511 1039.74 10.8511C1038.84 11.0736 1037.63 11.537 1036.36 12.0216C1035.48 12.3581 1034.58 12.705 1033.73 12.9884C1033.44 13.1331 1033.13 13.2777 1032.81 13.4239C1031.75 13.913 1030.65 14.4192 1030.19 15C1029.86 14.4342 1029.2 13.5261 1028.72 13.1141C1027.74 12.2792 1027.5 12.1203 1026.58 11.514C1026.48 11.4459 1026.37 11.3721 1026.25 11.2911C1025.93 11.0768 1025.67 10.9009 1025.46 10.7533C1024.45 10.0616 1024.35 9.99222 1022.5 9.51485C1021.5 9.34236 1019.83 9.31987 1019.83 9.34236C1019.83 9.34236 1019.2 9.34702 1018.23 9.37154H43.6713V9.36976L42.1655 9.34236C42.1655 9.34236 40.4952 9.34236 39.4965 9.51485C37.649 9.99222 37.5482 10.0616 36.5438 10.7534C36.3295 10.9009 36.074 11.0769 35.7517 11.2911C35.6298 11.3721 35.5184 11.4459 35.4156 11.514C34.5004 12.1203 34.2605 12.2792 33.2797 13.1141C32.7958 13.5261 32.1439 14.4342 31.8098 15C31.3469 14.4192 30.2503 13.913 29.1909 13.4239C28.8743 13.2777 28.561 13.133 28.2689 12.9884C27.4199 12.7049 26.5148 12.3581 25.6364 12.0215C24.3719 11.537 23.1626 11.0736 22.2559 10.8511C21.7214 10.8511 15.9025 13.0926 14.8399 13.5542C9.7746 15.7544 2.27949 15.2514 0.408784 9.71953C-0.414726 6.83514 -0.0915696 3.53901 2.27954 1.65074C4.73885 -0.307679 8.92906 -0.479308 11.2668 1.85868C14.0929 4.68499 12.334 9.20569 8.49292 9.65667C7.11154 9.81886 5.35281 9.40522 3.94978 8.14797C3.94978 8.14797 3.21486 7.51934 2.81403 5.86254C2.71953 4.76715 2.89635 3.79673 2.98155 3.32912C3.01685 3.1354 3.03642 3.02798 3.01446 3.03372C1.9471 3.31346 1.2522 3.8548 1.01008 5.13056C0.341973 8.65087 2.75743 11.5772 5.55321 12.1712C7.62435 12.6112 9.20814 12.1712 11.2989 11.4168C11.7595 11.2507 12.2028 11.0928 12.6314 10.9402C16.5442 9.54696 19.2267 8.59177 22.5231 5.76434C23.0106 5.34627 23.4814 4.92344 23.8809 4.56464C24.1932 4.28409 24.462 4.04267 24.6611 3.87331C26.2829 2.65957 27.0896 1.74584 27.649 1.11217C28.195 0.493789 28.5054 0.142134 29.1082 0.0386826C29.9193 -0.100566 30.2252 0.134034 31.0632 0.776562C31.4986 1.11039 32.0776 1.55432 32.9456 2.11315C33.4429 2.46083 33.8942 2.79657 34.3265 3.1182C35.6973 4.13792 36.8774 5.01583 38.727 5.68287C40.6565 6.37876 43.769 6.48799 43.769 6.48799H1018.23C1020.15 6.48799 1021.34 6.37876 1023.27 5.68287C1025.12 5.0158 1026.3 4.13786 1027.67 3.1181C1028.11 2.7965 1028.56 2.46079 1029.05 2.11315C1029.92 1.55433 1030.5 1.11039 1030.94 0.77657C1031.77 0.134036 1032.08 -0.100567 1032.89 0.0386825C1033.49 0.142131 1033.8 0.493769 1034.35 1.11212C1034.91 1.74579 1035.72 2.65954 1037.34 3.87331C1037.54 4.04254 1037.81 4.28368 1038.12 4.56394C1038.52 4.92289 1038.99 5.346 1039.48 5.76434C1042.77 8.59175 1045.46 9.5468 1049.37 10.94C1049.8 11.0927 1050.24 11.2506 1050.7 11.4168C1052.79 12.1712 1054.38 12.6112 1056.45 12.1712C1059.24 11.5772 1061.66 8.65087 1060.99 5.13056C1060.75 3.8548 1060.05 3.31346 1058.99 3.03372C1058.96 3.02798 1058.98 3.13545 1059.02 3.32927C1059.1 3.79693 1059.28 4.76726 1059.19 5.86254C1058.79 7.51934 1058.05 8.14797 1058.05 8.14797C1056.65 9.40522 1054.89 9.81886 1053.51 9.65667C1049.67 9.20569 1047.91 4.68499 1050.73 1.85868C1053.07 -0.479308 1057.26 -0.307679 1059.72 1.65074C1062.09 3.53901 1062.41 6.83514 1061.59 9.71953C1059.72 15.2514 1052.23 15.7544 1047.16 13.5542ZM1034 11.5C1034.12 11.4499 1034.25 11.3958 1034.4 11.354C1035.07 10.9632 1035.45 10.7578 1035.79 10.5749C1036.16 10.3752 1036.48 10.2025 1037.07 9.84526C1037.22 9.75552 1037.35 9.66398 1037.48 9.57164C1037.71 9.41211 1037.94 9.25017 1038.27 9.09091C1037.88 8.85233 1037.5 8.64409 1037.14 8.4473C1036.54 8.11468 1036 7.81479 1035.53 7.45648C1034.89 7.06503 1034.48 6.79445 1034.07 6.5193C1033.75 6.3084 1033.43 6.09481 1033 5.82205C1032.46 5.48772 1031.2 4.5795 1030.79 4.25048C1029.7 3.51065 1029.49 3.59516 1028.96 3.80436C1028.91 3.82625 1028.85 3.84949 1028.79 3.87331C1028.79 3.87331 1028.05 4.31334 1027.45 4.5648C1026.97 4.76589 1026.69 4.88979 1026.26 5.08467C1026.02 5.19438 1025.72 5.32659 1025.31 5.50774C1026.11 5.69632 1027.78 7.26789 1027.78 7.26789C1027.88 7.32933 1028.22 7.5894 1028.66 7.92564C1029.11 8.27743 1029.68 8.7126 1030.19 9.09091L1030.35 9.21094C1031.34 9.94007 1031.74 10.2385 1032.66 11.1654C1033.29 11.8014 1033.59 11.6759 1034 11.5ZM27.6008 11.354C27.7489 11.3958 27.8769 11.4499 27.9953 11.5C28.411 11.6759 28.7079 11.8015 29.3378 11.1654C30.2558 10.2385 30.6599 9.9401 31.6472 9.21104L31.8098 9.09091C32.3216 8.71268 32.8863 8.27761 33.3428 7.92586C33.7793 7.58959 34.1171 7.32934 34.215 7.26789C34.215 7.26789 35.8853 5.69632 36.687 5.50774C36.2781 5.32667 35.9839 5.19449 35.7398 5.08481C35.3059 4.88985 35.0301 4.76594 34.5491 4.5648C33.9478 4.31334 33.2129 3.87331 33.2129 3.87331C33.1496 3.8495 33.0912 3.82626 33.0361 3.80438C32.5099 3.59516 32.2973 3.51064 31.2086 4.25048C30.8013 4.57951 29.5368 5.48772 29.0038 5.82205C28.5689 6.09484 28.2472 6.30845 27.9296 6.51937C27.5153 6.79449 27.1079 7.06508 26.465 7.45648C26.004 7.81477 25.4594 8.11465 24.8554 8.44725C24.498 8.64405 24.1198 8.85231 23.7257 9.09091C24.0643 9.2502 24.2935 9.41216 24.5193 9.57172C24.65 9.66403 24.7795 9.75554 24.9283 9.84526C25.5213 10.2025 25.8411 10.3752 26.2108 10.5748C26.5494 10.7577 26.93 10.9632 27.6008 11.354Z" fill="#DEAF94"/>
</svg>
