<svg  viewBox="0 0 100 47" fill="none" xmlns="http://www.w3.org/2000/svg">
<path d="M26.1995 0.750579C28.4819 2.20672 29.2258 4.5483 28.2581 7.26222C27.48 9.44413 26.1329 11.2969 24.6751 13.0691C23.1228 14.9562 21.5288 16.8095 19.9718 18.6929C19.6053 19.1362 19.31 19.6382 18.9896 20.1182C18.736 20.4981 18.4611 20.6338 17.9973 20.3961C13.8451 18.2679 10.2199 15.5332 7.7259 11.5275C6.63107 9.76903 5.89293 7.88995 5.92962 5.75028C5.98733 2.38495 9.12924 -0.395528 12.6694 0.0463298C14.5222 0.277586 16.0805 1.0928 17.5118 2.20875C18.3889 2.89257 18.3625 2.89203 19.1586 2.18731C20.5073 0.993405 21.9976 0.0273795 23.8857 0.119069C24.6478 0.156077 25.3942 0.512221 26.1995 0.750579Z" fill="#F85959"/>
<path d="M34.6219 16.9776H36.3512C38.0245 16.9776 39.3135 16.3751 40.2182 15.1701C41.1069 13.9731 41.5512 12.397 41.5512 10.4419C41.5512 6.71527 40.3543 4.52077 37.9604 3.85843C37.4721 3.72277 36.9357 3.65494 36.3512 3.65494H34.6219V16.9776ZM31.7517 19.3835V1.24897H36.039C40.4263 1.24897 43.0764 3.00856 43.9891 6.52774C44.2773 7.65292 44.4214 8.83796 44.4214 10.0828C44.4214 11.3277 44.3333 12.3771 44.1572 13.2309C43.9891 14.0848 43.6968 14.8948 43.2805 15.6609C42.8642 16.4269 42.3438 17.0813 41.7193 17.6239C40.3503 18.797 38.4568 19.3835 36.039 19.3835H31.7517Z" fill="#246A73"/>
<path d="M46.463 16.2234V6.75517H49.0329V15.5531C49.0329 16.1277 49.2051 16.5865 49.5493 16.9297C49.9016 17.2648 50.3139 17.4324 50.7863 17.4324C51.2666 17.4324 51.743 17.2928 52.2154 17.0135C52.6957 16.7262 53.052 16.4429 53.2842 16.1636V6.75517H55.8542V19.3835H53.2842V18.0429C52.2434 19.0803 51.1626 19.599 50.0417 19.599C49.0329 19.599 48.1963 19.3356 47.5318 18.809C46.8192 18.2424 46.463 17.3805 46.463 16.2234Z" fill="#246A73"/>
<path d="M67.7433 9.91526V19.3835H65.1733V10.5856C65.1733 10.011 64.9972 9.55616 64.6449 9.221C64.3006 8.87786 63.8883 8.70629 63.4079 8.70629C62.9276 8.70629 62.4512 8.84992 61.9789 9.13721C61.5065 9.41651 61.1542 9.69581 60.922 9.97511V19.3835H58.3521V6.75517H60.922V8.09581C61.3864 7.63297 61.8708 7.25791 62.3752 6.97063C62.8875 6.68335 63.484 6.53971 64.1645 6.53971C65.2053 6.53971 66.062 6.823 66.7345 7.38958C67.407 7.94818 67.7433 8.79008 67.7433 9.91526Z" fill="#246A73"/>
<path d="M75.153 8.70629C74.2162 8.70629 73.3516 9.11726 72.559 9.9392V15.9721C72.567 15.9801 72.623 16.0559 72.7271 16.1995C72.8312 16.3352 72.9433 16.4628 73.0634 16.5825C73.1834 16.7022 73.3356 16.8299 73.5197 16.9656C73.92 17.2768 74.3844 17.4324 74.9128 17.4324C75.4492 17.4324 75.8855 17.3606 76.2218 17.217C76.558 17.0653 76.8262 16.8698 77.0264 16.6304C77.2265 16.391 77.3867 16.0878 77.5068 15.7207C77.7149 15.0903 77.819 14.3362 77.819 13.4584C77.819 12.5726 77.767 11.8504 77.6629 11.2918C77.5588 10.7252 77.4227 10.2823 77.2546 9.96314C77.0944 9.63596 76.8903 9.37661 76.6421 9.18509C76.2418 8.86589 75.7454 8.70629 75.153 8.70629ZM72.559 18.4379C72.4949 19.0683 72.4309 19.3835 72.3668 19.3835H69.6527C69.8769 18.8728 69.989 18.3022 69.989 17.6718V1.24897H72.559V7.59307C72.7031 7.37761 73.0033 7.15018 73.4597 6.91078C73.916 6.6634 74.4564 6.53971 75.0809 6.53971C75.7054 6.53971 76.2778 6.61153 76.7982 6.75517C77.3186 6.89083 77.7589 7.07437 78.1192 7.30579C78.4875 7.53721 78.8078 7.82848 79.08 8.1796C79.3602 8.52274 79.5803 8.88185 79.7405 9.25691C79.9006 9.63197 80.0327 10.0589 80.1368 10.5377C80.3049 11.3357 80.389 12.1497 80.389 12.9796C80.389 13.8095 80.3289 14.5197 80.2088 15.1102C80.0887 15.6928 79.8926 16.2594 79.6204 16.81C79.3562 17.3526 79.0279 17.8314 78.6356 18.2464C77.771 19.1481 76.6341 19.599 75.225 19.599C74.0561 19.599 73.1674 19.212 72.559 18.4379Z" fill="#246A73"/>
<path d="M84.364 16.1277C84.364 16.5985 84.4801 16.9416 84.7123 17.1571C84.9445 17.3646 85.2327 17.4683 85.5769 17.4683C85.9212 17.4683 86.1774 17.4484 86.3455 17.4085C86.5217 17.3686 86.6938 17.3087 86.8619 17.2289L87.3063 17.0015C87.4344 16.9297 87.5785 16.8299 87.7386 16.7022L88.0869 16.4269C88.1509 16.3711 88.255 16.2793 88.3991 16.1516L88.6153 15.9481V12.9915C86.8219 13.4065 85.649 13.8534 85.0966 14.3322C84.6082 14.7631 84.364 15.3616 84.364 16.1277ZM88.9755 19.3835C88.7354 19.2399 88.6153 18.8688 88.6153 18.2703L88.3871 18.5337C87.6986 19.2678 86.7138 19.6349 85.4328 19.6349C83.8796 19.6349 82.8148 19.0883 82.2384 17.995C81.9422 17.4524 81.794 16.8259 81.794 16.1157C81.794 15.4055 81.9181 14.7751 82.1663 14.2245C82.4225 13.6659 82.8348 13.1751 83.4033 12.7521C84.4361 11.9861 86.1734 11.3596 88.6153 10.8729C88.6153 10.3063 88.5953 9.95915 88.5552 9.83147C88.5232 9.70379 88.4832 9.58409 88.4351 9.47237C88.3951 9.36065 88.3431 9.27686 88.279 9.221C88.215 9.15716 88.1349 9.08933 88.0388 9.01751C87.9428 8.94569 87.8307 8.89382 87.7026 8.8619C87.3903 8.7821 87.0421 8.7422 86.6578 8.7422C86.2815 8.7422 85.9252 8.80205 85.589 8.92175C85.2607 9.03347 84.9965 9.16115 84.7963 9.30479C84.6042 9.44843 84.4281 9.61601 84.2679 9.80753C84.0598 10.0629 83.9117 10.2863 83.8236 10.4778L82.1423 9.44843C82.4946 8.72224 82.7988 8.23946 83.055 8.00006C83.3112 7.75268 83.5634 7.5412 83.8116 7.36564C84.0598 7.19008 84.324 7.05043 84.6042 6.94669C85.2767 6.69931 85.9612 6.57562 86.6578 6.57562C87.3543 6.57562 87.9067 6.61552 88.315 6.69532C88.7314 6.76714 89.1237 6.9028 89.4919 7.1023C89.8682 7.29382 90.1765 7.55317 90.4167 7.88035C90.929 8.59058 91.1852 9.62798 91.1852 10.9926V17.6C91.1852 17.8234 91.2253 18.1386 91.3053 18.5456C91.3934 18.9526 91.4735 19.2319 91.5455 19.3835H88.9755Z" fill="#246A73"/>
<path d="M93.5631 19.3835V6.75517H96.133V8.49082C96.1651 8.45092 96.2371 8.34718 96.3492 8.1796L96.6374 7.74868C97.2299 6.9427 98.2066 6.53971 99.5677 6.53971C99.7118 6.53971 99.8559 6.55168 100 6.57562V8.71826C98.5429 8.7422 97.4941 9.14519 96.8536 9.92723C96.5654 10.2783 96.3252 10.7292 96.133 11.2798V19.3835H93.5631Z" fill="#246A73"/>
<path d="M2.8702 39.6064H4.59953C6.27281 39.6064 7.5618 39.0039 8.46649 37.7989C9.35517 36.6019 9.79951 35.0259 9.79951 33.0708C9.79951 29.3441 8.60259 27.1496 6.20876 26.4873C5.72039 26.3516 5.18397 26.2838 4.59953 26.2838H2.8702V39.6064ZM0 42.0124V23.8778H4.28729C8.67465 23.8778 11.3247 25.6374 12.2374 29.1566C12.5256 30.2818 12.6697 31.4668 12.6697 32.7117C12.6697 33.9566 12.5816 35.0059 12.4055 35.8598C12.2374 36.7136 11.9452 37.5236 11.5288 38.2897C11.1125 39.0558 10.5921 39.7101 9.96764 40.2528C8.59859 41.4258 6.70514 42.0124 4.28729 42.0124H0Z" fill="#246A73"/>
<path d="M16.5847 38.7565C16.5847 39.2273 16.7008 39.5705 16.933 39.7859C17.1652 39.9934 17.4534 40.0972 17.7976 40.0972C18.1419 40.0972 18.3981 40.0772 18.5662 40.0373C18.7424 39.9974 18.9145 39.9376 19.0826 39.8578L19.527 39.6303C19.6551 39.5585 19.7992 39.4588 19.9593 39.3311L20.3076 39.0558C20.3716 38.9999 20.4757 38.9081 20.6198 38.7805L20.836 38.577V35.6204C19.0426 36.0353 17.8697 36.4822 17.3173 36.961C16.8289 37.3919 16.5847 37.9904 16.5847 38.7565ZM21.1963 42.0124C20.9561 41.8687 20.836 41.4977 20.836 40.8992L20.6078 41.1625C19.9193 41.8967 18.9345 42.2637 17.6535 42.2637C16.1003 42.2637 15.0355 41.7171 14.4591 40.6238C14.1629 40.0812 14.0147 39.4548 14.0147 38.7446C14.0147 38.0343 14.1388 37.4039 14.387 36.8533C14.6432 36.2947 15.0555 35.8039 15.624 35.381C16.6568 34.6149 18.3941 33.9885 20.836 33.5017C20.836 32.9351 20.816 32.588 20.7759 32.4603C20.7439 32.3326 20.7039 32.2129 20.6558 32.1012C20.6158 31.9895 20.5638 31.9057 20.4997 31.8498C20.4357 31.786 20.3556 31.7182 20.2595 31.6463C20.1635 31.5745 20.0514 31.5226 19.9233 31.4907C19.611 31.4109 19.2628 31.371 18.8785 31.371C18.5022 31.371 18.1459 31.4309 17.8097 31.5506C17.4814 31.6623 17.2172 31.79 17.017 31.9336C16.8249 32.0773 16.6488 32.2448 16.4886 32.4364C16.2805 32.6917 16.1324 32.9152 16.0443 33.1067L14.363 32.0773C14.7153 31.3511 15.0195 30.8683 15.2757 30.6289C15.5319 30.3815 15.7841 30.17 16.0323 29.9945C16.2805 29.8189 16.5447 29.6793 16.8249 29.5755C17.4974 29.3281 18.1819 29.2045 18.8785 29.2045C19.575 29.2045 20.1274 29.2444 20.5357 29.3242C20.9521 29.396 21.3444 29.5316 21.7126 29.7311C22.0889 29.9227 22.3972 30.182 22.6374 30.5092C23.1497 31.2194 23.4059 32.2568 23.4059 33.6214V40.2288C23.4059 40.4523 23.446 40.7675 23.526 41.1745C23.6141 41.5814 23.6942 41.8607 23.7662 42.0124H21.1963Z" fill="#246A73"/>
<path d="M24.2706 29.384H27.1288L29.7948 36.961L32.1727 29.384H35.0309L30.8036 42.3954C30.3793 43.7041 30.027 44.566 29.7468 44.9809C29.4666 45.3959 29.2104 45.7231 28.9782 45.9625C28.754 46.2019 28.5099 46.3934 28.2457 46.537C27.405 47.0078 26.1641 47.1196 24.5228 46.8722C24.4507 46.8642 24.4147 46.8602 24.4147 46.8602L24.5348 44.4782C24.831 44.6059 25.2193 44.6697 25.6997 44.6697C26.1881 44.6697 26.5764 44.6059 26.8646 44.4782C27.1608 44.3505 27.397 44.1869 27.5731 43.9874C27.7573 43.7879 27.9134 43.5645 28.0415 43.3171C28.1696 43.0777 28.2657 42.8343 28.3297 42.5869C28.4498 42.1001 28.5139 41.6533 28.5219 41.2463L24.2706 29.384Z" fill="#246A73"/>
<path d="M37.6503 35.1895C37.5222 34.4393 37.4582 33.6812 37.4582 32.9152C37.4582 32.1491 37.5182 31.395 37.6383 30.6528C37.7584 29.9107 37.9345 29.1885 38.1667 28.4863C38.4069 27.776 38.7151 27.1257 39.0914 26.5351C39.4757 25.9366 39.912 25.414 40.4004 24.9671C41.4412 24.0175 42.7342 23.5426 44.2794 23.5426C46.2409 23.5426 47.7901 24.5202 48.9269 26.4753C49.4794 27.4249 49.8517 28.4025 50.0438 29.4079V29.4199L47.5459 30.0902C47.4178 29.2364 47.2657 28.6139 47.0895 28.2229C46.9134 27.8239 46.7373 27.4927 46.5611 27.2294C46.385 26.9581 46.1929 26.7346 45.9847 26.5591C45.4883 26.1521 44.9239 25.9486 44.2914 25.9486C43.6669 25.9486 43.1305 26.0923 42.6822 26.3795C42.2338 26.6588 41.8655 27.0299 41.5773 27.4927C41.2891 27.9476 41.0489 28.4823 40.8568 29.0967C40.5045 30.2299 40.3284 31.5067 40.3284 32.9271C40.3284 36.6937 41.225 38.9441 43.0184 39.6782C43.4027 39.8378 43.811 39.9176 44.2434 39.9176C44.6757 39.9176 45.06 39.8618 45.3962 39.75C45.7405 39.6383 46.0287 39.4947 46.2609 39.3191C46.4931 39.1356 46.6972 38.9201 46.8734 38.6727C47.0575 38.4254 47.2016 38.178 47.3057 37.9306C47.4178 37.6752 47.5059 37.4159 47.5699 37.1525C47.69 36.6897 47.75 36.2588 47.75 35.8598L50.4281 36.2309C50.0678 37.763 49.4393 39.0917 48.5427 40.2169C47.4058 41.6213 45.9767 42.3236 44.2554 42.3236C42.1417 42.3236 40.4404 41.3221 39.1515 39.3191C38.4229 38.1939 37.9225 36.8174 37.6503 35.1895Z" fill="#246A73"/>
<path d="M54.3191 34.2079H58.7625C58.7625 33.5855 58.6544 33.0468 58.4382 32.592C58.0219 31.7541 57.4455 31.3351 56.7089 31.3351C56.2686 31.3351 55.8803 31.4349 55.544 31.6344C55.2158 31.8259 54.9676 32.0773 54.7995 32.3885C54.4792 32.971 54.3191 33.5775 54.3191 34.2079ZM52.3015 39.5705C52.0534 39.0199 51.8772 38.4573 51.7731 37.8827C51.6771 37.3002 51.629 36.57 51.629 35.6922C51.629 34.8064 51.7331 33.9486 51.9413 33.1186C52.1494 32.2887 52.4176 31.6304 52.7459 31.1436C53.0741 30.6488 53.4704 30.2498 53.9348 29.9466C54.7274 29.4279 55.6601 29.1685 56.7329 29.1685C57.7417 29.1685 58.6224 29.4678 59.375 30.0663C60.784 31.1995 61.4566 33.3022 61.3925 36.3745H54.199C54.199 37.9864 54.6273 39.0717 55.484 39.6303C55.9243 39.9176 56.3847 40.0613 56.865 40.0613C57.3534 40.0613 57.7577 40.0014 58.078 39.8817C58.3982 39.762 58.6544 39.6263 58.8466 39.4747C59.0387 39.3231 59.2148 39.1475 59.375 38.948C59.5911 38.6687 59.7392 38.4293 59.8193 38.2298L61.4526 39.2832C60.8601 40.3126 60.2276 41.0468 59.5551 41.4857C58.8105 41.9804 57.9899 42.2278 57.0932 42.2278C56.2045 42.2278 55.4439 42.1121 54.8115 41.8807C54.187 41.6493 53.6746 41.342 53.2743 40.959C52.882 40.576 52.5577 40.1131 52.3015 39.5705Z" fill="#246A73"/>
<path d="M72.8733 32.5441V42.0124H70.3033V33.2144C70.3033 32.6398 70.1272 32.185 69.7749 31.8498C69.4307 31.5067 69.0184 31.3351 68.538 31.3351C68.0576 31.3351 67.5813 31.4788 67.1089 31.766C66.6365 32.0453 66.2843 32.3246 66.0521 32.6039V42.0124H63.4821V29.384H66.0521V30.7246C66.5164 30.2618 67.0008 29.8867 67.5052 29.5995C68.0176 29.3122 68.614 29.1685 69.2946 29.1685C70.3354 29.1685 71.192 29.4518 71.8645 30.0184C72.5371 30.577 72.8733 31.4189 72.8733 32.5441Z" fill="#246A73"/>
<path d="M74.2304 31.5506V29.384H76.1158V24.7756H78.6858V29.384H81.3398V31.5506H78.6858V38.3256C78.6858 39.0039 78.8059 39.4707 79.046 39.7261C79.2942 39.9735 79.7065 40.0972 80.283 40.0972C80.5152 40.0972 80.7473 40.0812 80.9795 40.0493C81.2197 40.0174 81.3398 39.9974 81.3398 39.9894V41.7969C80.9075 41.9964 80.5712 42.1241 80.331 42.1799C80.0989 42.2358 79.8106 42.2637 79.4664 42.2637C79.1301 42.2637 78.8779 42.2597 78.7098 42.2518C78.5497 42.2438 78.3495 42.2159 78.1093 42.168C77.8771 42.1201 77.673 42.0563 77.4969 41.9765C77.3287 41.8887 77.1526 41.765 76.9685 41.6054C76.7843 41.4458 76.6322 41.2543 76.5121 41.0308C76.2479 40.5201 76.1158 39.8578 76.1158 39.0438V31.5506H74.2304Z" fill="#246A73"/>
<path d="M82.7209 42.0124V29.384H85.2908V31.1197C85.3229 31.0798 85.3949 30.976 85.507 30.8084L85.7952 30.3775C86.3877 29.5715 87.3644 29.1685 88.7255 29.1685C88.8696 29.1685 89.0137 29.1805 89.1578 29.2045V31.3471C87.7007 31.371 86.6519 31.774 86.0114 32.5561C85.7232 32.9072 85.483 33.358 85.2908 33.9087V42.0124H82.7209Z" fill="#246A73"/>
<path d="M92.2922 34.2079H96.7356C96.7356 33.5855 96.6275 33.0468 96.4114 32.592C95.995 31.7541 95.4186 31.3351 94.682 31.3351C94.2417 31.3351 93.8534 31.4349 93.5171 31.6344C93.1889 31.8259 92.9407 32.0773 92.7726 32.3885C92.4523 32.971 92.2922 33.5775 92.2922 34.2079ZM90.2747 39.5705C90.0265 39.0199 89.8503 38.4573 89.7462 37.8827C89.6502 37.3002 89.6021 36.57 89.6021 35.6922C89.6021 34.8064 89.7062 33.9486 89.9144 33.1186C90.1225 32.2887 90.3907 31.6304 90.719 31.1436C91.0472 30.6488 91.4435 30.2498 91.9079 29.9466C92.7005 29.4279 93.6332 29.1685 94.706 29.1685C95.7148 29.1685 96.5955 29.4678 97.3481 30.0663C98.7572 31.1995 99.4297 33.3022 99.3656 36.3745H92.1721C92.1721 37.9864 92.6004 39.0717 93.4571 39.6303C93.8974 39.9176 94.3578 40.0613 94.8382 40.0613C95.3265 40.0613 95.7308 40.0014 96.0511 39.8817C96.3713 39.762 96.6275 39.6263 96.8197 39.4747C97.0118 39.3231 97.188 39.1475 97.3481 38.948C97.5642 38.6687 97.7124 38.4293 97.7924 38.2298L99.4257 39.2832C98.8332 40.3126 98.2007 41.0468 97.5282 41.4857C96.7836 41.9804 95.963 42.2278 95.0663 42.2278C94.1776 42.2278 93.4171 42.1121 92.7846 41.8807C92.1601 41.6493 91.6477 41.342 91.2474 40.959C90.8551 40.576 90.5308 40.1131 90.2747 39.5705Z" fill="#246A73"/>
</svg>
