<svg viewBox="0 0 1062 15" fill="none" xmlns="http://www.w3.org/2000/svg">
<path opacity="0.8" fill-rule="evenodd" clip-rule="evenodd" d="M1047.16 1.44584C1046.1 1.90738 1040.28 4.14894 1039.74 4.14894C1038.84 3.92637 1037.63 3.46301 1036.36 2.97845C1035.49 2.64186 1034.58 2.29505 1033.73 2.01161C1033.44 1.86694 1033.13 1.72228 1032.81 1.57608C1031.75 1.08699 1030.65 0.580755 1030.19 4.10156e-07C1029.86 0.565765 1029.2 1.47388 1028.72 1.88588C1027.74 2.72081 1027.5 2.87972 1026.58 3.48602C1026.48 3.55414 1026.37 3.6279 1026.25 3.7089C1025.93 3.92315 1025.67 4.09907 1025.46 4.24665C1024.45 4.93836 1024.35 5.00778 1022.5 5.48515C1021.5 5.65764 1019.83 5.68013 1019.83 5.65764C1019.83 5.65764 1019.2 5.65298 1018.23 5.62846H43.6713V5.63024L42.1655 5.65764C42.1655 5.65764 40.4952 5.65764 39.4965 5.48515C37.649 5.00778 37.5482 4.93836 36.5438 4.24664C36.3295 4.09906 36.074 3.92314 35.7517 3.7089C35.6298 3.62789 35.5184 3.55412 35.4156 3.486C34.5004 2.87972 34.2605 2.72081 33.2797 1.88588C32.7958 1.47388 32.1439 0.565765 31.8098 4.10156e-07C31.3469 0.58078 30.2503 1.08703 29.1909 1.57614C28.8743 1.72231 28.561 1.86697 28.2689 2.01161C27.4199 2.29506 26.5148 2.64188 25.6364 2.97848C24.3719 3.46302 23.1626 3.92638 22.2559 4.14894C21.7214 4.14894 15.9025 1.90738 14.8399 1.44584C9.7746 -0.754352 2.27949 -0.251448 0.408784 5.28047C-0.414726 8.16486 -0.0915696 11.461 2.27954 13.3493C4.73885 15.3077 8.92906 15.4793 11.2668 13.1413C14.0929 10.315 12.334 5.79431 8.49292 5.34333C7.11154 5.18114 5.35281 5.59478 3.94978 6.85203C3.94978 6.85203 3.21486 7.48066 2.81403 9.13746C2.71953 10.2328 2.89635 11.2033 2.98155 11.6709C3.01685 11.8646 3.03642 11.972 3.01446 11.9663C1.9471 11.6865 1.2522 11.1452 1.01008 9.86944C0.341973 6.34913 2.75743 3.42282 5.55321 2.82882C7.62435 2.38878 9.20814 2.82882 11.2989 3.58317C11.7595 3.74933 12.2028 3.9072 12.6314 4.05981C16.5442 5.45304 19.2267 6.40823 22.5232 9.23566C23.0106 9.65373 23.4814 10.0766 23.8809 10.4354C24.1932 10.7159 24.462 10.9573 24.6611 11.1267C26.2829 12.3404 27.0896 13.2542 27.649 13.8878C28.195 14.5062 28.5054 14.8579 29.1082 14.9613C29.9193 15.1006 30.2252 14.866 31.0632 14.2234C31.4986 13.8896 32.0776 13.4457 32.9456 12.8868C33.4429 12.5392 33.8942 12.2034 34.3265 11.8818C35.6973 10.8621 36.8774 9.98417 38.727 9.31713C40.6565 8.62124 43.769 8.51201 43.769 8.51201H1018.23C1020.15 8.51201 1021.34 8.62124 1023.27 9.31713C1025.12 9.9842 1026.3 10.8621 1027.67 11.8819C1028.11 12.2035 1028.56 12.5392 1029.05 12.8868C1029.92 13.4457 1030.5 13.8896 1030.94 14.2234C1031.77 14.866 1032.08 15.1006 1032.89 14.9613C1033.49 14.8579 1033.8 14.5062 1034.35 13.8879C1034.91 13.2542 1035.72 12.3405 1037.34 11.1267C1037.54 10.9575 1037.81 10.7163 1038.12 10.4361C1038.52 10.0771 1038.99 9.654 1039.48 9.23566C1042.77 6.40825 1045.46 5.4532 1049.37 4.05998C1049.8 3.90732 1050.24 3.7494 1050.7 3.58317C1052.79 2.82882 1054.38 2.38878 1056.45 2.82882C1059.24 3.42282 1061.66 6.34913 1060.99 9.86944C1060.75 11.1452 1060.05 11.6865 1058.99 11.9663C1058.96 11.972 1058.98 11.8645 1059.02 11.6707C1059.1 11.2031 1059.28 10.2327 1059.19 9.13746C1058.79 7.48066 1058.05 6.85203 1058.05 6.85203C1056.65 5.59478 1054.89 5.18114 1053.51 5.34333C1049.67 5.79431 1047.91 10.315 1050.73 13.1413C1053.07 15.4793 1057.26 15.3077 1059.72 13.3493C1062.09 11.461 1062.41 8.16486 1061.59 5.28047C1059.72 -0.251448 1052.23 -0.754352 1047.16 1.44584ZM1034 3.49999C1034.12 3.55007 1034.25 3.60423 1034.4 3.64604C1035.07 4.03675 1035.45 4.24225 1035.79 4.42513C1036.16 4.62477 1036.48 4.79747 1037.07 5.15474C1037.22 5.24448 1037.35 5.33602 1037.48 5.42836C1037.71 5.58789 1037.94 5.74983 1038.27 5.90909C1037.88 6.14767 1037.5 6.35591 1037.14 6.5527C1036.54 6.88532 1036 7.18521 1035.53 7.54352C1034.89 7.93497 1034.48 8.20555 1034.07 8.4807C1033.75 8.6916 1033.43 8.90519 1033 9.17795C1032.46 9.51228 1031.2 10.4205 1030.79 10.7495C1029.7 11.4893 1029.49 11.4048 1028.96 11.1956C1028.91 11.1738 1028.85 11.1505 1028.79 11.1267C1028.79 11.1267 1028.05 10.6867 1027.45 10.4352C1026.97 10.2341 1026.69 10.1102 1026.26 9.91533C1026.02 9.80562 1025.72 9.67341 1025.31 9.49226C1026.11 9.30368 1027.78 7.73211 1027.78 7.73211C1027.88 7.67067 1028.22 7.4106 1028.66 7.07436C1029.11 6.72257 1029.68 6.2874 1030.19 5.90909L1030.35 5.78906C1031.34 5.05993 1031.74 4.76151 1032.66 3.83462C1033.29 3.19856 1033.59 3.32414 1034 3.49999ZM27.6008 3.64604C27.7489 3.60423 27.8769 3.55008 27.9953 3.5C28.411 3.32414 28.7079 3.19855 29.3378 3.83462C30.2558 4.76147 30.6599 5.0599 31.6472 5.78896L31.8098 5.90909C32.3216 6.28732 32.8863 6.72239 33.3428 7.07414C33.7793 7.41041 34.1171 7.67066 34.215 7.73211C34.215 7.73211 35.8853 9.30368 36.687 9.49226C36.2781 9.67333 35.9839 9.80551 35.7398 9.91519C35.3059 10.1101 35.0301 10.2341 34.5491 10.4352C33.9478 10.6867 33.2129 11.1267 33.2129 11.1267C33.1496 11.1505 33.0912 11.1737 33.0361 11.1956C32.5099 11.4048 32.2973 11.4894 31.2086 10.7495C30.8013 10.4205 29.5368 9.51228 29.0038 9.17795C28.5689 8.90516 28.2473 8.69155 27.9296 8.48063C27.5153 8.20551 27.1079 7.93492 26.465 7.54352C26.004 7.18523 25.4594 6.88535 24.8554 6.55275C24.498 6.35595 24.1198 6.14769 23.7257 5.90909C24.0643 5.7498 24.2935 5.58784 24.5193 5.42828C24.65 5.33597 24.7795 5.24446 24.9283 5.15474C25.5213 4.79749 25.8411 4.62479 26.2108 4.42516C26.5494 4.24228 26.93 4.03676 27.6008 3.64604Z" />
</svg>
